PathFileType	4	(X/Y/Z)	D:\TRACE\spot_10-12-23\spot_arm_motion_1_2-v60.trc
DataRate	CameraRate	NumFrames	NumMarkers	Units	OrigDataRate	OrigDataStartFrame	OrigNumFrames
100.00	100.00	      42	9	mm	100.00	3501	      7000
Frame#	Time	front left toe			Front right toe			aft left toe			aft right toe			Arm			FL body			FR body			AL Body			AR Body			
		X1	Y1	Z1	X2	Y2	Z2	X3	Y3	Z3	X4	Y4	Z4	X5	Y5	Z5	X6	Y6	Z6	X7	Y7	Z7	X8	Y8	Z8	X9	Y9	Z9	

3501	35.000	-315.82208	22.82966	-31.47766	197.39000	24.41537	-121.16205	-207.11613	18.53086	553.35339	302.51678	14.65727	459.81561	92.96018	783.79950	-755.11005	-141.75861	540.71411	-124.33247	7.55316	545.95819	-154.24138	20.74343	559.98541	744.64508	169.44330	558.13507	718.27673	
3502	35.010	-316.61728	22.67094	-31.37926	196.41597	24.46939	-121.25027	-208.18352	18.06995	553.53186	301.65955	14.42221	459.99994	92.28934	783.95886	-754.32178	-142.49188	540.42938	-124.39231	6.96999	545.43744	-153.74036	19.36731	560.30255	744.65234	168.17804	558.13135	718.38245	
3503	35.020	-317.73975	22.75415	-31.42075	195.27388	24.45865	-121.00184	-209.32683	17.85342	553.50525	300.45532	14.17531	460.04562	90.92571	784.25214	-753.14087	-142.96510	540.00256	-124.58698	6.46034	544.82367	-153.79265	18.46156	560.26495	744.55902	167.44450	558.01898	718.47742	
3504	35.030	-318.52005	22.84417	-31.18137	194.78983	24.59134	-120.89265	-210.06650	17.57857	553.60852	299.37018	13.90535	460.13150	89.37808	784.93884	-751.29315	-143.32834	539.38049	-124.68990	5.81605	544.37885	-154.42569	17.35097	560.00531	743.73798	165.99236	557.97418	718.34717	
3505	35.040	-319.40854	22.84118	-31.23347	193.23994	24.20729	-120.32616	-211.24648	17.18938	553.62817	298.61905	13.90378	460.26212	87.30590	786.38226	-749.01575	-143.71683	538.85675	-125.09267	5.84573	543.39288	-154.03607	16.05812	559.98846	743.46454	165.36836	557.95288	718.24762	
3506	35.050	-320.37885	23.29628	-31.38958	192.63179	24.30684	-120.22893	-212.22934	16.95867	553.64630	297.55182	13.59294	460.38754	85.17873	788.73358	-746.43750	-144.06595	538.29724	-125.61514	5.63132	542.81226	-154.32141	15.00576	559.91669	743.76721	163.96048	557.76416	718.25800	
3507	35.060	-320.99881	23.38936	-31.38743	192.10884	24.34077	-120.32336	-213.10356	16.39489	553.53107	296.76379	13.33380	460.52823	82.68935	791.94531	-743.84119	-144.41132	537.80042	-126.22072	6.27694	541.87372	-153.84026	14.57293	559.20288	743.15588	162.70695	557.27155	718.10065	
3508	35.070	-321.90295	23.54502	-31.39605	190.98166	24.52392	-120.25932	-214.43376	16.27619	553.50739	295.54691	12.79243	460.62448	80.07206	795.98529	-741.52649	-144.67680	537.36761	-126.40536	5.66774	541.72479	-154.67551	12.99890	559.17072	743.14551	161.51955	556.77325	717.92987	
3509	35.080	-322.72040	23.61168	-31.26757	190.54523	24.44732	-120.10780	-215.23175	15.78274	553.41693	294.77600	12.58611	460.83447	75.83492	800.64886	-738.36682	-144.98808	536.96930	-126.72295	5.42296	541.26971	-154.53140	11.61297	558.66425	742.41620	160.58557	556.46497	717.68433	
3510	35.090	-323.61237	23.53166	-31.12875	189.44945	24.49341	-120.01369	-216.32784	15.39355	553.67865	294.03781	12.25136	460.86835	72.85062	805.88422	-736.49310	-145.33240	536.87573	-126.92545	4.97051	541.15698	-154.68204	10.79981	557.81561	742.23151	159.91780	555.67462	717.60071	
3511	35.100	-324.80716	23.86224	-31.12968	188.41266	24.75870	-119.79299	-217.33931	15.24197	553.71515	292.97363	11.88337	460.98779	68.88124	811.47339	-734.12292	-146.15182	537.05951	-127.13456	3.37139	542.00293	-156.06969	10.50983	556.96814	742.43683	159.34953	554.93347	717.73120	
3512	35.110	-325.56012	23.75135	-31.10851	187.12314	24.94374	-119.85368	-217.95073	14.83702	553.84686	292.18350	11.58975	460.85556	65.48490	816.93176	-732.66010	-147.09694	537.47168	-127.13875	2.70371	542.20703	-155.50360	9.61347	555.98358	742.29938	158.99425	553.59204	717.49695	
3513	35.120	-326.77094	23.98321	-30.82764	186.37680	25.20539	-119.80853	-218.86517	14.50459	554.13519	291.23007	11.10993	461.06308	62.37290	822.34851	-731.30396	-148.28041	538.04712	-126.92027	1.33260	543.09137	-155.52605	9.61716	554.79547	742.90479	158.64609	552.95905	717.56396	
3514	35.130	-327.57938	23.78646	-30.61659	185.27632	25.24578	-119.66427	-219.61795	14.45904	554.19440	290.32224	10.78012	461.06647	59.29998	827.25018	-730.28723	-149.40039	538.59131	-126.64017	0.26754	543.80078	-155.38136	9.08452	553.76007	742.98120	158.26553	551.77881	717.41071	
3515	35.140	-328.70007	23.91431	-30.25228	184.31763	25.59997	-119.81448	-220.37363	14.06044	554.51367	289.38205	10.46137	461.21573	56.69722	832.00409	-729.34027	-150.74069	539.25598	-126.21741	-1.39884	545.30328	-155.85104	9.44779	551.64294	742.42603	158.05870	550.88800	717.08783	
3516	35.150	-329.72943	23.69992	-30.03550	182.62784	26.06610	-119.68370	-221.27719	13.77457	554.62408	288.72415	10.12678	461.16693	54.24326	835.70087	-728.85156	-152.44963	540.00598	-125.97235	-2.83207	546.18011	-154.96948	8.68167	550.82562	742.85138	157.81689	549.89685	717.27960	
3517	35.160	-330.84622	23.71597	-29.75639	183.63716	27.23728	-119.26255	-222.15952	13.55233	554.76849	287.35428	9.64586	461.25897	52.14650	838.94092	-728.26520	-154.14531	540.89136	-125.51298	-4.61223	547.25531	-154.81117	8.38190	549.45270	742.91516	157.30998	549.01196	716.95837	
3518	35.170	-331.93958	23.74006	-29.71899	182.37657	27.15277	-119.54446	-222.91908	13.28881	555.02472	286.68890	9.38035	461.25522	51.09486	841.09772	-728.21149	-155.90457	541.60321	-125.05525	-6.49178	548.60706	-155.16856	8.16228	548.45648	743.06262	156.86479	548.17279	717.14050	
3519	35.180	-333.14423	23.75289	-29.51185	180.55585	26.90221	-119.83270	-223.78836	12.90764	555.07776	285.79813	9.08736	461.36508	50.01726	842.56262	-728.04712	-157.26376	542.13141	-124.58970	-7.89287	549.19568	-154.13461	7.71464	547.54871	743.28876	156.12477	547.71857	716.97748	
3520	35.190	-334.11050	23.60076	-29.41068	179.46535	27.00459	-119.50921	-224.65591	12.69841	555.24408	284.70401	8.82318	461.34241	49.58997	843.13574	-727.98779	-158.81961	542.55603	-124.19984	-9.78061	550.15491	-154.64380	6.83404	546.98309	743.49744	155.84607	547.34320	717.10364	
3521	35.200	-335.07654	23.77624	-29.17683	177.74135	26.50953	-119.57083	-225.74266	12.29299	555.44873	283.61981	8.47582	461.33435	49.48622	843.11920	-728.01367	-160.36040	543.02069	-123.92673	-11.31675	550.46674	-153.93770	6.82702	546.01965	743.37439	155.09259	546.93610	717.15741	
3522	35.210	-336.03430	23.58849	-28.99454	176.74702	26.76423	-119.43513	-226.66353	12.06683	555.41278	282.73849	8.22295	461.34296	49.64539	842.43994	-727.99969	-162.00172	543.38904	-123.67303	-12.84281	551.10797	-153.75916	5.96780	546.16565	744.62885	154.13220	546.69873	717.20465	
3523	35.220	-337.03244	23.60721	-28.77157	175.45023	26.94028	-119.59695	-227.68477	11.98654	555.51459	281.52783	8.13764	461.43671	50.15341	841.15112	-728.15692	-163.49669	543.76740	-123.29897	-14.31083	551.63763	-153.98685	4.03893	546.28809	744.83295	153.11891	546.52863	717.34534	
3524	35.230	-337.98904	23.39644	-28.75064	174.94075	26.90537	-119.31622	-228.77402	11.40091	555.61261	280.83087	8.00517	461.35767	51.00189	839.52710	-728.31091	-164.85620	543.97015	-123.07634	-15.47697	551.68011	-153.27594	4.28505	545.29828	744.59766	151.76854	546.40576	717.60938	
3525	35.240	-339.10339	23.73054	-28.90050	173.77966	26.80261	-119.25343	-229.63226	11.12155	555.69238	279.45737	7.76008	461.65472	52.10244	837.63452	-728.27039	-165.94965	544.21655	-123.13503	-16.53991	551.84747	-153.28304	1.70757	545.56293	744.87244	150.35490	546.18170	717.64417	
3526	35.250	-339.94098	23.55344	-28.91764	172.94289	26.88926	-119.09258	-230.66899	10.57808	555.85669	278.65491	7.65252	461.89590	52.80465	835.69318	-728.49884	-167.07741	544.24017	-123.08790	-17.72768	552.03760	-153.04984	0.56517	545.07294	744.24634	148.95082	546.12524	717.96466	
3527	35.260	-340.82065	23.59596	-28.77706	171.79036	26.96691	-119.06892	-231.82938	10.22840	555.75433	277.61606	7.37844	462.05777	53.78916	833.40759	-728.73907	-167.71140	544.16797	-123.19183	-18.38164	551.93097	-152.90053	-1.84070	545.18774	744.71436	147.00099	545.91803	718.18555	
3528	35.270	-341.69202	23.77140	-28.71852	171.04753	27.04032	-118.94176	-232.85907	9.85041	555.89069	276.41412	7.05652	462.12173	54.50028	831.35431	-729.04205	-168.47969	544.20953	-123.29335	-19.12469	551.73889	-152.89787	-3.00553	544.62726	744.35583	144.97307	545.65686	718.46753	
3529	35.280	-342.52820	23.89685	-28.77920	170.48807	27.11952	-118.73414	-233.95782	9.48865	555.94495	275.58862	6.91584	462.37979	55.09556	829.43396	-729.16687	-169.13824	544.04431	-123.38699	-19.79355	551.63007	-152.86363	-5.93932	544.86707	744.61407	143.41371	545.54346	718.72601	
3530	35.290	-343.44083	24.02219	-28.84223	169.38466	26.92501	-118.48998	-234.86856	9.11349	555.90887	274.54678	6.81231	462.58148	55.69928	827.25464	-729.21991	-169.54019	543.76868	-123.55096	-20.08570	551.49396	-152.75523	-6.59209	544.13580	744.67755	141.59717	545.15332	719.40277	
3531	35.300	-344.20154	24.09987	-28.86971	169.03957	26.77093	-118.50654	-236.25403	8.74163	555.97089	273.63742	6.54968	462.70401	55.92720	825.52753	-729.58514	-170.19914	543.39789	-123.96278	-20.61897	551.59796	-153.23438	-9.16740	544.40570	744.94470	140.50909	545.42700	720.28876	
3532	35.310	-345.07181	24.13411	-28.87986	168.02451	26.73073	-118.38847	-236.95522	8.38758	555.88904	272.68173	6.37236	462.87326	55.82560	823.83893	-729.53998	-170.75766	543.33289	-124.05076	-21.42393	551.31329	-153.24933	-10.05215	543.91022	744.94293	138.79518	546.03143	720.72327	
3533	35.320	-345.96570	24.22563	-28.78947	167.26582	26.86416	-118.10361	-238.00153	7.89820	556.06006	271.65158	6.17334	462.86469	55.28556	822.51056	-729.64166	-171.33614	543.03442	-124.17532	-21.83614	551.00891	-153.29341	-12.19677	544.07477	745.04626	136.65923	544.95624	719.84131	
3534	35.330	-346.72031	24.23732	-28.75397	166.47487	26.86838	-117.92493	-238.99716	7.77381	556.12646	270.93448	5.99173	462.95996	54.25873	821.25671	-729.82367	-171.66840	542.76971	-124.15985	-22.51757	550.80408	-153.41312	-13.79274	543.83954	745.00409	137.42296	546.27777	722.32068	
3535	35.340	-347.61441	24.27683	-28.63659	165.50999	26.93977	-117.73145	-239.65048	7.50130	556.35907	269.97360	5.68527	463.02396	53.73489	820.50342	-729.90735	-172.69812	542.48761	-124.21992	-23.33895	550.47968	-152.75453	-13.81265	543.40527	745.25500	135.63026	546.25598	722.30756	
3536	35.350	-348.52411	24.42549	-28.64979	164.26482	26.84545	-117.60722	-240.68253	7.09694	556.28625	268.99994	5.37882	463.12970	52.61106	819.86633	-730.01776	-173.41904	542.47638	-124.37381	-23.86061	550.17010	-152.62177	-15.81705	543.88184	745.73267	135.07811	546.08160	722.51105	
3537	35.360	-349.43372	24.59537	-28.69010	163.59361	27.21828	-117.66840	-241.48351	6.86353	556.29547	268.40665	5.10932	463.26920	50.58016	819.36951	-729.96393	-174.09470	542.33423	-124.37244	-24.47502	550.10913	-152.50912	-17.32561	543.63727	745.44086	132.18961	545.06946	720.93231	
3538	35.370	-350.37625	24.62491	-28.58627	162.82285	27.18310	-117.50782	-242.28020	6.64269	556.41650	267.57150	4.80698	463.29745	49.48865	819.06146	-730.26532	-175.14433	542.42450	-124.22272	-25.50636	549.97467	-152.58806	-17.27325	542.96631	745.47552	131.66068	545.28314	721.47107	
3539	35.380	-351.24576	24.49750	-28.27638	162.07617	27.19581	-117.40706	-243.35495	6.36498	556.42145	266.47250	4.46893	463.27823	47.44471	818.98950	-730.10248	-175.87163	542.24042	-124.16518	-26.23906	549.88239	-152.30748	-18.60184	543.37280	745.98206	130.55911	544.98102	721.70807	
3540	35.390	-352.23392	24.54501	-28.20029	161.03413	27.26645	-117.37644	-244.10475	6.15037	556.40320	265.83173	4.27174	463.42017	45.82275	819.20618	-730.32281	-176.99193	542.36755	-123.94662	-27.48083	549.93719	-152.26768	-19.51278	543.03986	746.06006	129.26582	543.41949	720.73956	
3541	35.400	-352.93674	24.58497	-28.14055	160.17667	27.55462	-117.41072	-244.79341	5.79947	556.33002	264.96002	3.99056	463.51132	44.15285	819.30267	-730.12219	-178.12811	542.32220	-123.70245	-28.57399	550.21442	-152.68915	-20.52352	542.57220	746.09613	128.52689	543.08807	720.69147	
3542	35.410	-353.61945	24.47307	-27.96657	159.14725	27.75516	-117.18651	-245.61920	5.47449	556.48749	264.30487	3.78842	463.48517	42.31958	819.82977	-730.10376	-179.29895	542.43793	-123.62991	-29.71981	550.39575	-152.49211	-20.47920	541.82440	745.82489	127.89075	542.97620	720.89508	
